<svg width="48" height="48" version="1.1" viewBox="0 0 12.7 12.7" xmlns="http://www.w3.org/2000/svg">
<g transform="translate(0,-284.29)">
<path d="m5.0033 286.51c-0.57621 0.27562-1.1123 0.16377-1.5167 0.12113-0.96031-0.10124-1.126 0.40945-1.461 1.0609-0.33501 0.65141-0.25128 1.461-0.25128 2.0193-0.043327 1.3679 0.47738 3.6857 2.0193 3.7503 0.30244 0 0.82922-0.0976 1.0479-0.36274 0.21869-0.26522 0.053008-0.50435-0.012133-0.86263-0.065141-0.35826-0.12633-0.78365-0.16821-1.3699-0.024737-0.74675-0.1546-1.4918-0.14168-2.2391 0.33076 1.5991 0.11489 2.8423 0.62347 4.3366 0.11167 0.3164 0.58214 0.52949 1.2994 0.50319 0.71725-0.0264 0.82698-0.31242 1.0224-0.77771s0.11642-1.2098 0.055932-2.066c-0.00741-0.73412-0.22091-1.297-0.24676-1.9821 0.20104 0.72028 0.32104 1.4601 0.39975 2.2007 0.046529 0.45134 0.054493 1.3148-0.00143 1.657-0.055931 0.34217-0.26917 0.63087-0.26917 0.63087 0.3955 0.11632 0.60618 0.20158 1.0668 0.15505 0.46064-0.0465 0.41863-0.0371 0.75364-0.57227 0.33501-0.53509 0.32115-1.4518 0.25601-1.8519-0.083901-0.58576-0.21177-1.1649-0.12112-1.7543-0.027866 0.89032 0.35755 1.8792 0.25601 2.7732-0.08841 0.6421-0.26012 0.82603-0.26012 0.82603s-0.0068 0.0442 0.22023 0.0508c0.22702 6e-3 0.46322-0.12288 0.62142-0.50442 0.79222-1.6145 0.73608-2.4683 0.51182-3.7039-0.12098-0.67001-0.69787-0.69789-1.1446-0.88401-0.44668-0.18611-0.77247-0.48394-1.0796-0.68867-0.30709-0.20472-0.60481-0.093-1.1073-0.15813-0.50251-0.0651-0.62159-0.37732-1.1073-0.54903-0.4474-0.15816-0.87195 0.0535-1.2657 0.2418zm-2.9469 5.8891c-0.10963 0.1854-0.2206 0.45806-0.17746 0.77442 0.078962 0.57906 0.60209 1.0759 1.3062 1.3917 0.70409 0.31586 1.316 0.42114 1.5793 0.49681 0.26321 0.0757 0.55274 0.0493 0.95413-0.28952 0.40139-0.33889 0.84361-0.57084 1.2624-0.60807 0.41876-0.0372 0.72126-0.20482 0.70265-0.53053-0.00443-0.0774-0.012591-0.14598-0.020974-0.20932-0.1187-0.0328-0.22969-0.066-0.32984-0.0955-0.17688 0.29464-0.61875 0.33785-0.88298 0.34838-0.58821 0.0234-1.0568-0.10772-1.3866-0.51943-0.30833 0.39809-0.802 0.4815-1.2698 0.51472-0.45207 0-0.87338-0.24751-1.218-0.58831-0.20181-0.19961-0.3781-0.43458-0.51902-0.68517z" fill="#999"/>
</g>
</svg>
