<svg width="48" height="48" version="1.1" viewBox="0 0 12.7 12.7" xmlns="http://www.w3.org/2000/svg">
<g transform="translate(0 -284.29)">
<path d="m7.9379 285.98c-0.35781 0-0.53433 0.22105-0.53433 0.76429 0 0.79017-0.44907 1.0809-1.4201 2.4701-0.97098 1.3892-1.575 1.8712-1.8045 1.8712h-0.042891v3.4943h3.9506c0.87625 0 1.0537-0.0767 1.3498-0.54828 0.29603-0.47155 1.1016-1.9501 1.078-2.9951-0.02368-1.0451-0.45047-1.542-1.2438-1.542h-1.5317c0.2778-0.47939 0.5347-0.91561 0.65938-1.5777 0.065657-0.65649-0.012034-1.9368-0.46043-1.9368zm-5.7531 5.1056v3.4943h1.5653v-3.4943z" fill="#999"/>
</g>
</svg>
