<svg width="48" height="48" version="1.1" viewBox="0 0 12.7 12.7" xmlns="http://www.w3.org/2000/svg">
<path d="m6.35 1.3633c-2.7541-7.69e-5 -4.9867 2.2326-4.9867 4.9867-7.68e-5 2.7541 2.2326 4.9867 4.9867 4.9867 2.7541 7.7e-5 4.9867-2.2326 4.9867-4.9867 7.7e-5 -2.7541-2.2326-4.9867-4.9867-4.9867zm-3.205 2.7303c0.023129-5.505e-4 0.046134 0.00356 0.067636 0.012099l2.3615 0.88196-2.3615 0.88375c-0.2153 0.07967-0.33543-0.24278-0.12049-0.32341l1.497-0.56036-1.497-0.55855c-0.18557-0.060775-0.14241-0.33472 0.052856-0.3355zm6.4045 0c0.19796-0.00452 0.24558 0.27401 0.057335 0.3355l-1.4965 0.55855 1.4965 0.56036c0.21315 0.081147 0.094429 0.401-0.12004 0.32341l-2.362-0.88375 2.362-0.88196c0.019966-0.00791 0.041235-0.012013 0.06271-0.012098zm-6.2096 3.36h6.0201c-1.186e-4 0.049596-0.00147 0.099182-0.00403 0.14871-0.00501 0.10018-0.015027 0.20004-0.030011 0.29922-0.1362 0.90602-0.67763 1.7007-1.471 2.159-0.93132 0.5377-2.0787 0.5377-3.0101 0-0.17151-0.10044-0.33265-0.21762-0.48108-0.34983l-0.0018 0.00268c-0.031028-0.027577-0.061493-0.055804-0.091366-0.08465-0.15111-0.14409-0.28681-0.30351-0.40492-0.47569-0.17032-0.24881-0.30229-0.52181-0.39148-0.80984-0.089105-0.28812-0.1344-0.588-0.13438-0.88958zm2.955 1.1355c-0.38868 0.0092416-0.76881 0.11598-1.1055 0.31041-0.25278 0.14731-0.47542 0.34107-0.6562 0.5711 0.16054 0.16437 0.34256 0.3063 0.5411 0.42194 0.7894 0.45576 1.762 0.45576 2.5514 0 0.1983-0.11526 0.38015-0.25674 0.54064-0.42061-0.18053-0.23046-0.40304-0.42471-0.65577-0.57245-0.36903-0.21312-0.78963-0.32052-1.2157-0.31041z" fill="#999" stroke-width=".22934"/>
</svg>
