<svg width="19" height="24" version="1.1" viewBox="0 0 5.027 6.3499" xmlns="http://www.w3.org/2000/svg">
<path d="m2.5135-1.0112e-5c-0.72744 0-1.5797 0.68199-1.5797 1.8098 0 1.3279 1.3615 3.356 1.5797 3.356s1.5797-2.0281 1.5797-3.356c0-1.1278-0.8523-1.8098-1.5797-1.8098zm0 0.96858a0.73721 0.75334 0 0 1 0.73721 0.75334 0.73721 0.75334 0 0 1-0.73721 0.75334 0.73721 0.75334 0 0 1-0.73721-0.75334 0.73721 0.75334 0 0 1 0.73721-0.75334z" stroke-width=".21292"/>
<path d="m2.5135 3.2465c-0.20524 0-0.40394 0.01577-0.59525 0.043412 0.044965 0.14587 0.096601 0.29043 0.1765 0.4367 0.010153 0.018585 0.019717 0.032566 0.029838 0.050646 0.12624-0.013605 0.25539-0.023256 0.38891-0.023256s0.26268 0.00965 0.38891 0.023256c0.010121-0.018082 0.019686-0.032062 0.029838-0.050646 0.079894-0.14625 0.13154-0.29085 0.1765-0.4367-0.19131-0.027642-0.39001-0.043411-0.59525-0.043411zm-1.6396 0.36796c-0.02809 0.014724-0.057382 0.028412-0.084458 0.043928-0.457 0.26188-0.78945 0.65788-0.78945 1.139s0.33245 0.8787 0.78945 1.1406c0.457 0.26188 1.0609 0.41189 1.7241 0.41189 0.66313 0 1.2671-0.15001 1.7241-0.41189 0.457-0.26188 0.78945-0.65943 0.78945-1.1406s-0.33245-0.87715-0.78945-1.139c-0.027076-0.015516-0.056368-0.029204-0.084458-0.043928-0.071645 0.15816-0.14885 0.30762-0.22657 0.45582 0.020949 0.011013 0.046295 0.020089 0.066252 0.031525 0.3626 0.20779 0.53557 0.46007 0.53557 0.69561s-0.17297 0.48731-0.53557 0.6951c-0.3626 0.20779-0.89173 0.34781-1.4793 0.34781-0.58755 0-1.1167-0.14002-1.4793-0.34781-0.3626-0.20779-0.53557-0.45955-0.53557-0.6951s0.17297-0.48783 0.53557-0.69561c0.019957-0.011436 0.045302-0.020512 0.066252-0.031525-0.077717-0.1482-0.15493-0.29765-0.22657-0.45582z" color="#000000" color-rendering="auto" dominant-baseline="auto" image-rendering="auto" shape-rendering="auto" solid-color="#000000" style="font-feature-settings:normal;font-variant-alternates:normal;font-variant-caps:normal;font-variant-ligatures:normal;font-variant-numeric:normal;font-variant-position:normal;isolation:auto;mix-blend-mode:normal;shape-padding:0;text-decoration-color:#000000;text-decoration-line:none;text-decoration-style:solid;text-indent:0;text-orientation:mixed;text-transform:none;white-space:normal"/>
</svg>
