<svg width="32" height="32" version="1.1" viewBox="0 0 8.4666 8.4666" xmlns="http://www.w3.org/2000/svg">
<g transform="translate(0 -288.53)" fill="none" stroke="#000" stroke-miterlimit="10.4" stroke-width=".26458">
<path d="m4.2333 289.37c-0.23864 2.6e-4 -0.43505 0.18793-0.44596 0.42632-1.7775 0.42455-1.8515 2.8897-1.8515 3.5827 0 0.92247-0.81389 1.5162-0.81389 1.5162s0.96056 0.24037 3.1114 0.24037c2.1508 0 3.1114-0.24037 3.1114-0.24037s-0.81389-0.59369-0.81389-1.5162c0-0.69296-0.074038-3.1581-1.8515-3.5827-0.010916-0.23839-0.20732-0.42606-0.44596-0.42632z"/>
<path d="m4.9494 295.23a0.74133 0.74133 0 0 1-0.29086 0.79914 0.74133 0.74133 0 0 1-0.85042 0 0.74133 0.74133 0 0 1-0.29086-0.79914" stroke-linecap="square" style="paint-order:normal"/>
</g>
</svg>
