<svg width="27" height="24" version="1.1" viewBox="0 0 7.1437 6.3499" xmlns="http://www.w3.org/2000/svg">
<path d="m3.8283 0.0025221c-1.7075 0.06757-3.0613 1.4719-3.0613 3.1732h-0.76701l1.0327 1.2157 1.0322-1.2157h-0.76649c1e-7 -1.4228 1.1237-2.5877 2.5517-2.6442 1.428-0.05651 2.6406 1.0146 2.7541 2.4329 0.11343 1.4183-0.91315 2.6682-2.3322 2.8374-1.0924 0.13024-2.1095-0.41746-2.6238-1.3169l-0.35963 0.42313c0.64424 0.98009 1.8076 1.5669 3.0462 1.4192 1.6968-0.20228 2.9343-1.7077 2.7987-3.4037-0.13564-1.6959-1.5977-2.9887-3.3052-2.9211zm-0.32901 1.4022v2.3957h1.7276v-0.52904h-1.1962v-1.8666z" color="#000000" color-rendering="auto" dominant-baseline="auto" image-rendering="auto" shape-rendering="auto" solid-color="#000000" style="font-feature-settings:normal;font-variant-alternates:normal;font-variant-caps:normal;font-variant-ligatures:normal;font-variant-numeric:normal;font-variant-position:normal;isolation:auto;mix-blend-mode:normal;shape-padding:0;text-decoration-color:#000000;text-decoration-line:none;text-decoration-style:solid;text-indent:0;text-orientation:mixed;text-transform:none;white-space:normal"/>
</svg>
